<svg id="Layer_1" data-name="Layer 1" xmlns="http://www.w3.org/2000/svg" xmlns:xlink="http://www.w3.org/1999/xlink" width="736.94" height="1279.96" viewBox="0 0 736.94 1279.96"><defs><style>.cls-1{fill:#fff;opacity:0.75;}</style></defs><path d="M58.92,1.55A59.54,59.54,0,0,0,21.12,33c-7.9,16.5-7.2-44-7.2,607,0,650.7-.7,590.5,7.2,606.9,5.2,10.8,16.1,22.3,25.8,26.9,13.9,6.7-13.2,6.2,328.5,6.2s314.6.5,328.5-6.2c9.7-4.6,20.6-16.1,25.8-26.9,7.9-16.4,7.2,43.8,7.2-606.9,0-651,.7-590.5-7.2-607-5.2-10.9-16-22.1-25.8-26.8C690-.55,717.22,0,374.92.05,106.92.05,63.62.25,58.92,1.55Zm637,612.4v490h-641V124h641Z"/><g id="avjTVB.tif"><image id="Layer_0" data-name="Layer 0" width="448" height="700" transform="translate(54.92 123.95) scale(1.43 1.4)" xlink:href="tema2_mobil1.png"/></g><circle class="cls-1" cx="252.31" cy="70.22" r="8.88"/><rect class="cls-1" x="305.42" y="64.73" width="188.18" height="10.98" rx="5.49"/></svg>